# xmcd
#
# Track frame offsets:
#	150
#	14780
#	31588
#	53226
#	74915
#	93733
#	118659
#	132546
#	147579
#	163806
#	180359
#	199024
#	213630
#	228869
#	245626
#	268169
#	280714
#	298484
#
# Disc length: 4128 seconds
#
# Revision: 1
# Processed by: cddbd v1.5.2PL0 Copyright (c) Steve Scherf et al.
# Submitted via: audiograbber 1.83.01
#
DISCID=2a101e12
DTITLE=John Denver - The Unplugged Collection [CD1)
DYEAR=1900
DGENRE=Country
TTITLE0=Take Me Home Country Roads
TTITLE1=Leaving On A Jet Plane
TTITLE2=Rocky Mountain Hight
TTITLE3=Back Home Again
TTITLE4=Poems Prayers And Promises
TTITLE5=Sweet Surrender
TTITLE6=Annies Song
TTITLE7=Rhymes And Reasons
TTITLE8=I'm Sorry
TTITLE9=Calypso
TTITLE10=Welcome To My Morning
TTITLE11=How Can I Leave You Again
TTITLE12=For You
TTITLE13=Goodbye Again
TTITLE14=Falling Out Of Love
TTITLE15=Love Is The Master
TTITLE16=Seasons Of The Heart
TTITLE17=Follow Me
EXTD=
EXTT0=
EXTT1=
EXTT2=
EXTT3=
EXTT4=
EXTT5=
EXTT6=
EXTT7=
EXTT8=
EXTT9=
EXTT10=
EXTT11=
EXTT12=
EXTT13=
EXTT14=
EXTT15=
EXTT16=
EXTT17=
PLAYORDER=
